# xmcd CD database file
#
# Track frame offsets:
#	150
#	14088
#	29364
#	41544
#	53783
#	66718
#	86553
#	96320
#	110054
#	121708
#	132078
#	142978
#	161547
#	173231
#	184689
#	201830
#	216780
#	238370
#	253922
#	271491
#	285072
#	306128
#	322884
#
# Disc length: 4684 seconds
#
# Revision: 0
# Processed by: cddbd v1.5.2PL0 Copyright (c) Steve Scherf et al.
# Submitted via: CDex 1.51
#
DISCID=54124a17
DTITLE=Chicken Shack - Accept Chicken Shack  u  OK Ken
DYEAR=1900
DGENRE=Blues
TTITLE0=Diary Of Your Life
TTITLE1=Pocket
TTITLE2=Never Ever
TTITLE3=Sad Clown
TTITLE4=Maudie
TTITLE5=Telling Your Fortune
TTITLE6=Tired Eyes
TTITLE7=Some Other Time
TTITLE8=Going Round
TTITLE9=Andalucian Blues
TTITLE10=You Know You Did You Did
TTITLE11=She Didn t Use Her Loaf
TTITLE12=Baby Got Me Crying
TTITLE13=The Right Way Is My Way
TTITLE14=Get You Used To Be
TTITLE15=Pony And Trap
TTITLE16=Tell Me
TTITLE17=A Woman Is Tiå Blues
TTITLE18=I Wanna See My Baby
TTITLE19=Remington Ride
TTITLE20=Fishing In Your River
TTITLE21=Mean Old World 
TTITLE22=Sweet Sixteen
EXTD=
EXTT0=
EXTT1=
EXTT2=
EXTT3=
EXTT4=
EXTT5=
EXTT6=
EXTT7=
EXTT8=
EXTT9=
EXTT10=
EXTT11=
EXTT12=
EXTT13=
EXTT14=
EXTT15=
EXTT16=
EXTT17=
EXTT18=
EXTT19=
EXTT20=
EXTT21=
EXTT22=
PLAYORDER=
